<?xml version="1.0" encoding="UTF-8"?>
<svg enable-background="new 0 0 1743.58 1661.333" version="1.1" viewBox="0 0 1743.58 1661.333" xmlns="http://www.w3.org/2000/svg">
 <polygon points="1348.6 1041.5 1358.3 1071.2 1389.5 1071.2 1364.2 1089.5 1373.9 1119.2 1348.6 1100.9 1323.4 1119.2 1333 1089.5 1307.8 1071.2 1339 1071.2" fill="#9E9495"/>
 <polygon points="1348.6 990.2 1358.3 1019.9 1389.5 1019.9 1364.2 1038.2 1373.9 1067.9 1348.6 1049.6 1323.4 1067.9 1333 1038.2 1307.8 1019.9 1339 1019.9" fill="#17DFA1"/>
 <polygon points="1348.6 938.88 1358.3 968.56 1389.5 968.56 1364.2 986.9 1373.9 1016.6 1348.6 998.23 1323.4 1016.6 1333 986.9 1307.8 968.56 1339 968.56" fill="#4927F8"/>
 <polygon points="1348.6 887.52 1358.3 917.2 1389.5 917.2 1364.2 935.54 1373.9 965.22 1348.6 946.88 1323.4 965.22 1333 935.54 1307.8 917.2 1339 917.2" fill="#4DD95D"/>
 <polygon points="1348.6 836.13 1358.3 865.8 1389.5 865.8 1364.2 884.15 1373.9 913.83 1348.6 895.48 1323.4 913.83 1333 884.15 1307.8 865.8 1339 865.8" fill="#539979"/>
 <polygon points="1348.6 784.7 1358.3 814.38 1389.5 814.38 1364.2 832.72 1373.9 862.4 1348.6 844.06 1323.4 862.4 1333 832.72 1307.8 814.38 1339 814.38" fill="#034EE1"/>
 <polygon points="1348.6 733.3 1358.3 762.98 1389.5 762.98 1364.2 781.32 1373.9 811 1348.6 792.65 1323.4 811 1333 781.32 1307.8 762.98 1339 762.98" fill="#8D0B3C"/>
 <polygon points="1348.6 682.03 1358.3 711.71 1389.5 711.71 1364.2 730.05 1373.9 759.73 1348.6 741.39 1323.4 759.73 1333 730.05 1307.8 711.71 1339 711.71" fill="#ADA14F"/>
 <polygon points="1348.6 630.62 1358.3 660.3 1389.5 660.3 1364.2 678.64 1373.9 708.32 1348.6 689.98 1323.4 708.32 1333 678.64 1307.8 660.3 1339 660.3" fill="#B7BB3D"/>
 <polygon points="1348.6 579.31 1358.3 608.99 1389.5 608.99 1364.2 627.33 1373.9 657.01 1348.6 638.67 1323.4 657.01 1333 627.33 1307.8 608.99 1339 608.99" fill="#7AB9AF"/>
 <polygon points="1348.6 527.93 1358.3 557.61 1389.5 557.61 1364.2 575.95 1373.9 605.63 1348.6 587.28 1323.4 605.63 1333 575.95 1307.8 557.61 1339 557.61" fill="#9B3195"/>
 <polygon points="1348.6 476.6 1358.3 506.27 1389.5 506.27 1364.2 524.62 1373.9 554.29 1348.6 535.95 1323.4 554.29 1333 524.62 1307.8 506.27 1339 506.27" fill="#617F14"/>
 <polygon points="1348.6 425.23 1358.3 454.91 1389.5 454.91 1364.2 473.25 1373.9 502.93 1348.6 484.58 1323.4 502.93 1333 473.25 1307.8 454.91 1339 454.91" fill="#CA0F62"/>
 <polygon points="1348.6 373.91 1358.3 403.59 1389.5 403.59 1364.2 421.93 1373.9 451.61 1348.6 433.26 1323.4 451.61 1333 421.93 1307.8 403.59 1339 403.59" fill="#BA27C5"/>
 <polygon points="1348.6 322.64 1358.3 352.32 1389.5 352.32 1364.2 370.66 1373.9 400.34 1348.6 382 1323.4 400.34 1333 370.66 1307.8 352.32 1339 352.32" fill="#3F015E"/>
 <polygon points="1347.4 271.3 1357 300.98 1388.2 300.98 1363 319.32 1372.6 349 1347.4 330.66 1322.1 349 1331.8 319.32 1306.5 300.98 1337.7 300.98" fill="#A939C9"/>
 <polygon points="1339.2 220.57 1348.8 250.25 1380 250.25 1354.8 268.6 1364.4 298.27 1339.2 279.93 1313.9 298.27 1323.6 268.6 1298.3 250.25 1329.5 250.25" fill="#43C164"/>
 <polygon points="1314.7 175.36 1324.3 205.04 1355.5 205.04 1330.3 223.38 1339.9 253.06 1314.7 234.72 1289.4 253.06 1299.1 223.38 1273.8 205.04 1305 205.04" fill="#59B9F9"/>
 <polygon points="1268.6 152.6 1278.2 182.28 1309.5 182.28 1284.2 200.62 1293.8 230.3 1268.6 211.96 1243.4 230.3 1253 200.62 1227.8 182.28 1259 182.28" fill="#C1526B"/>
 <polygon points="1218.4 142 1228 171.68 1259.2 171.68 1234 190.02 1243.6 219.7 1218.4 201.36 1193.1 219.7 1202.8 190.02 1177.5 171.68 1208.7 171.68" fill="#235A08"/>
 <polygon points="1167.4 136.28 1177.1 165.96 1208.3 165.96 1183 184.3 1192.7 213.98 1167.4 195.64 1142.2 213.98 1151.8 184.3 1126.6 165.96 1157.8 165.96" fill="#75DFF7"/>
 <polygon points="1149.1 88.304 1158.7 117.98 1189.9 117.98 1164.7 136.32 1174.3 166 1149.1 147.66 1123.8 166 1133.5 136.32 1108.2 117.98 1139.4 117.98" fill="#C9AA57"/>
 <polygon points="1149.1 37.043 1158.7 66.722 1189.9 66.722 1164.7 85.064 1174.3 114.74 1149.1 96.4 1123.8 114.74 1133.5 85.064 1108.2 66.722 1139.4 66.722" fill="#67AE25"/>
 <polygon points="1200 30.666 1209.7 60.345 1240.9 60.345 1215.6 78.687 1225.3 108.37 1200 90.023 1174.8 108.37 1184.4 78.687 1159.2 60.345 1190.4 60.345" fill="#3DE7E3"/>
 <polygon points="1251.3 30.666 1261 60.345 1292.2 60.345 1266.9 78.687 1276.6 108.37 1251.3 90.023 1226.1 108.37 1235.7 78.687 1210.5 60.345 1241.7 60.345" fill="#298F27"/>
 <polygon points="1302.7 30.666 1312.3 60.345 1343.5 60.345 1318.3 78.687 1327.9 108.37 1302.7 90.023 1277.4 108.37 1287.1 78.687 1261.8 60.345 1293 60.345" fill="#F30187"/>
 <polygon points="1354 30.666 1363.6 60.345 1394.8 60.345 1369.6 78.687 1379.2 108.37 1354 90.023 1328.7 108.37 1338.4 78.687 1313.1 60.345 1344.3 60.345" fill="#CADFE9"/>
 <polygon points="1405.4 30.666 1415 60.345 1446.2 60.345 1421 78.687 1430.6 108.37 1405.4 90.023 1380.1 108.37 1389.7 78.687 1364.5 60.345 1395.7 60.345" fill="#11DB97"/>
 <polygon points="1456.7 30.666 1466.3 60.345 1497.5 60.345 1472.3 78.687 1481.9 108.37 1456.7 90.023 1431.4 108.37 1441.1 78.687 1415.8 60.345 1447 60.345" fill="#130992"/>
 <polygon points="1508.1 30.666 1517.8 60.345 1549 60.345 1523.7 78.687 1533.4 108.37 1508.1 90.023 1482.9 108.37 1492.5 78.687 1467.3 60.345 1498.5 60.345" fill="#F023E7"/>
 <polygon points="1559.6 30.666 1569.2 60.345 1600.4 60.345 1575.2 78.687 1584.8 108.37 1559.6 90.023 1534.3 108.37 1544 78.687 1518.7 60.345 1549.9 60.345" fill="#A5A9B5"/>
 <polygon points="1610.9 30.666 1620.5 60.345 1651.7 60.345 1626.5 78.687 1636.1 108.37 1610.9 90.023 1585.6 108.37 1595.3 78.687 1570 60.345 1601.2 60.345" fill="#2591F2"/>
 <polygon points="1662.2 30.666 1671.9 60.345 1703.1 60.345 1677.8 78.687 1687.5 108.37 1662.2 90.023 1637 108.37 1646.6 78.687 1621.4 60.345 1652.6 60.345" fill="#097789"/>
 <polygon points="1670.5 81.286 1680.2 110.96 1711.4 110.96 1686.1 129.31 1695.8 158.99 1670.5 140.64 1645.3 158.99 1654.9 129.31 1629.7 110.96 1660.9 110.96" fill="#B9E993"/>
 <polygon points="1670.5 132.7 1680.2 162.38 1711.4 162.38 1686.1 180.72 1695.8 210.4 1670.5 192.06 1645.3 210.4 1654.9 180.72 1629.7 162.38 1660.9 162.38" fill="#0BC7C7"/>
 <polygon points="1619.6 139.42 1629.3 169.1 1660.5 169.1 1635.2 187.44 1644.9 217.12 1619.6 198.78 1594.4 217.12 1604 187.44 1578.8 169.1 1610 169.1" fill="#6F1AB9"/>
 <polygon points="1569 147.66 1578.6 177.34 1609.8 177.34 1584.6 195.68 1594.2 225.36 1569 207.02 1543.7 225.36 1553.4 195.68 1528.1 177.34 1559.3 177.34" fill="#D2F543"/>
 <polygon points="1520.4 164.02 1530 193.7 1561.2 193.7 1536 212.05 1545.6 241.72 1520.4 223.38 1495.1 241.72 1504.8 212.05 1479.5 193.7 1510.7 193.7" fill="#0DA1D0"/>
 <polygon points="1486.4 202.55 1496 232.23 1527.2 232.23 1502 250.57 1511.6 280.25 1486.4 261.91 1461.1 280.25 1470.8 250.57 1445.5 232.23 1476.7 232.23" fill="#A52D29"/>
 <polygon points="1474.1 252.45 1483.7 282.12 1514.9 282.12 1489.7 300.47 1499.3 330.15 1474.1 311.8 1448.8 330.15 1458.5 300.47 1433.2 282.12 1464.4 282.12" fill="#05C90B"/>
 <polygon points="1471 303.63 1480.6 333.31 1511.8 333.31 1486.6 351.66 1496.2 381.33 1471 362.99 1445.7 381.33 1455.4 351.66 1430.1 333.31 1461.4 333.31" fill="#CC376D"/>
 <polygon points="1471 354.94 1480.6 384.62 1511.8 384.62 1486.6 402.96 1496.2 432.64 1471 414.3 1445.7 432.64 1455.4 402.96 1430.1 384.62 1461.3 384.62" fill="#7F2412"/>
 <polygon points="1471 406.29 1480.6 435.97 1511.8 435.97 1486.6 454.31 1496.2 483.99 1471 465.65 1445.7 483.99 1455.4 454.31 1430.1 435.97 1461.3 435.97" fill="#EAD801"/>
 <polygon points="1471 457.61 1480.6 487.28 1511.8 487.28 1486.6 505.63 1496.2 535.3 1471 516.96 1445.7 535.3 1455.4 505.63 1430.1 487.28 1461.3 487.28" fill="#D9D70F"/>
 <polygon points="1471 508.95 1480.6 538.62 1511.8 538.62 1486.6 556.97 1496.2 586.65 1471 568.3 1445.7 586.65 1455.4 556.97 1430.1 538.62 1461.3 538.62" fill="#35958F"/>
 <polygon points="1471 560.37 1480.6 590.05 1511.8 590.05 1486.6 608.39 1496.2 638.07 1471 619.72 1445.7 638.07 1455.4 608.39 1430.1 590.05 1461.3 590.05" fill="#2F0695"/>
 <polygon points="1471 611.8 1480.6 641.48 1511.8 641.48 1486.6 659.82 1496.2 689.5 1471 671.16 1445.7 689.5 1455.4 659.82 1430.1 641.48 1461.3 641.48" fill="#071A46"/>
 <polygon points="1471 663.22 1480.6 692.9 1511.8 692.9 1486.6 711.24 1496.2 740.92 1471 722.58 1445.7 740.92 1455.4 711.24 1430.1 692.9 1461.3 692.9" fill="#86D07B"/>
 <polygon points="1471 714.53 1480.6 744.21 1511.8 744.21 1486.6 762.55 1496.2 792.23 1471 773.89 1445.7 792.23 1455.4 762.55 1430.1 744.21 1461.3 744.21" fill="#1D359A"/>
 <polygon points="1471 765.9 1480.6 795.57 1511.8 795.57 1486.6 813.92 1496.2 843.59 1471 825.25 1445.7 843.59 1455.4 813.92 1430.1 795.57 1461.3 795.57" fill="#A617F9"/>
 <polygon points="1471 817.22 1480.6 846.9 1511.8 846.9 1486.6 865.24 1496.2 894.92 1471 876.57 1445.7 894.92 1455.4 865.24 1430.1 846.9 1461.3 846.9" fill="#B499C7"/>
 <polygon points="1471 868.54 1480.6 898.22 1511.8 898.22 1486.6 916.56 1496.2 946.24 1471 927.9 1445.7 946.24 1455.4 916.56 1430.1 898.22 1461.3 898.22" fill="#3784C3"/>
 <polygon points="1471 919.88 1480.6 949.56 1511.8 949.56 1486.6 967.9 1496.2 997.58 1471 979.24 1445.7 997.58 1455.4 967.9 1430.1 949.56 1461.3 949.56" fill="#06E559"/>
 <polygon points="1471 971.27 1480.6 1000.9 1511.8 1000.9 1486.6 1019.3 1496.2 1049 1471 1030.6 1445.7 1049 1455.4 1019.3 1430.1 1000.9 1461.3 1000.9" fill="#81255A"/>
 <polygon points="1471 1022.7 1480.6 1052.3 1511.8 1052.3 1486.6 1070.7 1496.2 1100.4 1471 1082 1445.7 1100.4 1455.4 1070.7 1430.1 1052.3 1461.3 1052.3" fill="#69F328"/>
 <polygon points="1471 1074 1480.6 1103.7 1511.8 1103.7 1486.6 1122 1496.2 1151.7 1471 1133.3 1445.7 1151.7 1455.4 1122 1430.1 1103.7 1461.3 1103.7" fill="#63452D"/>
 <polygon points="1471 1125.4 1480.6 1155 1511.8 1155 1486.6 1173.4 1496.2 1203.1 1471 1184.7 1445.7 1203.1 1455.4 1173.4 1430.1 1155 1461.3 1155" fill="#2B5117"/>
 <polygon points="1471 1176.8 1480.6 1206.5 1511.8 1206.5 1486.6 1224.8 1496.2 1254.5 1471 1236.1 1445.7 1254.5 1455.4 1224.8 1430.1 1206.5 1461.3 1206.5" fill="#4A6901"/>
 <polygon points="1471 1228.2 1480.6 1257.9 1511.8 1257.9 1486.6 1276.2 1496.2 1305.9 1471 1287.6 1445.7 1305.9 1455.4 1276.2 1430.1 1257.9 1461.3 1257.9" fill="#FE51D9"/>
 <polygon points="1471 1279.6 1480.6 1309.3 1511.8 1309.3 1486.6 1327.6 1496.2 1357.3 1471 1338.9 1445.7 1357.3 1455.4 1327.6 1430.1 1309.3 1461.3 1309.3" fill="#B245D5"/>
 <polygon points="1471 1331 1480.6 1360.7 1511.8 1360.7 1486.6 1379 1496.2 1408.7 1471 1390.3 1445.7 1408.7 1455.4 1379 1430.1 1360.7 1461.3 1360.7" fill="#3117A9"/>
 <polygon points="1471 1382.4 1480.6 1412.1 1511.8 1412.1 1486.6 1430.4 1496.2 1460.1 1471 1441.8 1445.7 1460.1 1455.4 1430.4 1430.1 1412.1 1461.3 1412.1" fill="#6695D5"/>
 <polygon points="1471 1433.8 1480.6 1463.4 1511.8 1463.4 1486.6 1481.8 1496.2 1511.5 1471 1493.1 1445.7 1511.5 1455.4 1481.8 1430.1 1463.4 1461.3 1463.4" fill="#956D7F"/>
 <polygon points="1471 1485.2 1480.6 1514.9 1511.8 1514.9 1486.6 1533.2 1496.2 1562.9 1471 1544.5 1445.7 1562.9 1455.4 1533.2 1430.1 1514.9 1461.3 1514.9" fill="#B301B0"/>
 <polygon points="1471 1536.5 1480.6 1566.1 1511.8 1566.1 1486.6 1584.5 1496.2 1614.2 1471 1595.8 1445.7 1614.2 1455.4 1584.5 1430.1 1566.1 1461.3 1566.1" fill="#0DAD0B"/>
 <polygon points="1422.3 1553 1432 1582.6 1463.2 1582.6 1437.9 1601 1447.6 1630.7 1422.3 1612.3 1397.1 1630.7 1406.7 1601 1381.5 1582.6 1412.7 1582.6" fill="#2765A5"/>
 <polygon points="1371 1553 1380.7 1582.6 1411.9 1582.6 1386.6 1601 1396.3 1630.7 1371 1612.3 1345.8 1630.7 1355.4 1601 1330.2 1582.6 1361.4 1582.6" fill="#B89EE9"/>
 <polygon points="1319.6 1553 1329.3 1582.6 1360.5 1582.6 1335.2 1601 1344.9 1630.7 1319.6 1612.3 1294.4 1630.7 1304 1601 1278.8 1582.6 1310 1582.6" fill="#4F1097"/>
 <polygon points="1280.2 1520.1 1289.8 1549.8 1321 1549.8 1295.8 1568.1 1305.4 1597.8 1280.2 1579.4 1254.9 1597.8 1264.6 1568.1 1239.3 1549.8 1270.5 1549.8" fill="#9E819D"/>
 <polygon points="1248.8 1479.4 1258.4 1509.1 1289.6 1509.1 1264.4 1527.4 1274 1557.1 1248.8 1538.8 1223.6 1557.1 1233.2 1527.4 1208 1509.1 1239.2 1509.1" fill="#6BEB1E"/>
 <polygon points="1217.4 1438.7 1227.1 1468.4 1258.3 1468.4 1233 1486.8 1242.7 1516.4 1217.4 1498.1 1192.2 1516.4 1201.8 1486.8 1176.6 1468.4 1207.8 1468.4" fill="#8FAE45"/>
 <polygon points="1186.1 1398.1 1195.7 1427.8 1226.9 1427.8 1201.7 1446.1 1211.3 1475.8 1186.1 1457.4 1160.8 1475.8 1170.5 1446.1 1145.2 1427.8 1176.4 1427.8" fill="#9BEA45"/>
 <polygon points="1154.7 1357.4 1164.3 1387 1195.5 1387 1170.3 1405.4 1179.9 1435.1 1154.7 1416.7 1129.4 1435.1 1139.1 1405.4 1113.8 1387 1145 1387" fill="#D19A4B"/>
 <polygon points="1123.3 1316.7 1133 1346.4 1164.2 1346.4 1138.9 1364.7 1148.6 1394.4 1123.3 1376.1 1098.1 1394.4 1107.7 1364.7 1082.5 1346.4 1113.7 1346.4" fill="#C9A27F"/>
 <polygon points="1092 1276.1 1101.6 1305.7 1132.8 1305.7 1107.6 1324.1 1117.2 1353.8 1092 1335.4 1066.7 1353.8 1076.4 1324.1 1051.1 1305.7 1082.3 1305.7" fill="#C52435"/>
 <polygon points="1060.6 1235.4 1070.2 1265.1 1101.4 1265.1 1076.2 1283.4 1085.8 1313.1 1060.6 1294.7 1035.4 1313.1 1045 1283.4 1019.8 1265.1 1051 1265.1" fill="#978B8E"/>
 <polygon points="1029.2 1194.7 1038.8 1224.3 1070 1224.3 1044.8 1242.7 1054.4 1272.4 1029.2 1254 1003.9 1272.4 1013.6 1242.7 988.34 1224.3 1019.5 1224.3" fill="#D15DA1"/>
 <polygon points="997.8 1153.9 1007.4 1183.6 1038.6 1183.6 1013.4 1202 1023 1231.6 997.8 1213.3 972.55 1231.6 982.19 1202 956.94 1183.6 988.15 1183.6" fill="#354122"/>
 <polygon points="966.43 1113.3 976.07 1143 1007.3 1143 982.03 1161.3 991.68 1191 966.43 1172.6 941.18 1191 950.83 1161.3 925.58 1143 956.79 1143" fill="#C8512F"/>
 <polygon points="935.11 1072.7 944.75 1102.3 975.96 1102.3 950.71 1120.7 960.35 1150.4 935.11 1132 909.86 1150.4 919.5 1120.7 894.26 1102.3 925.46 1102.3" fill="#B95BFD"/>
 <polygon points="903.74 1032 913.38 1061.7 944.59 1061.7 919.34 1080 928.99 1109.7 903.74 1091.3 878.5 1109.7 888.14 1080 862.89 1061.7 894.1 1061.7" fill="#E4916B"/>
 <polygon points="872.36 991.3 882 1021 913.21 1021 887.96 1039.3 897.61 1069 872.36 1050.7 847.12 1069 856.76 1039.3 831.51 1021 862.72 1021" fill="#1DF75E"/>
 <polygon points="841.02 950.65 850.66 980.33 881.87 980.33 856.62 998.67 866.26 1028.4 841.02 1010 815.77 1028.4 825.41 998.67 800.17 980.33 831.37 980.33" fill="#A9395D"/>
 <polygon points="809.69 910.03 819.34 939.71 850.54 939.71 825.3 958.05 834.94 987.73 809.69 969.39 784.45 987.73 794.09 958.05 768.84 939.71 800.05 939.71" fill="#B1E5A1"/>
 <polygon points="778.34 869.38 787.98 899.06 819.19 899.06 793.94 917.4 803.59 947.08 778.34 928.73 753.09 947.08 762.74 917.4 737.49 899.06 768.7 899.06" fill="#FBEF9B"/>
 <polygon points="746.97 828.7 756.61 858.38 787.82 858.38 762.57 876.72 772.22 906.4 746.97 888.06 721.72 906.4 731.37 876.72 706.12 858.38 737.33 858.38" fill="#BF69F5"/>
 <polygon points="715.59 788.01 725.24 817.69 756.44 817.69 731.2 836.04 740.84 865.71 715.59 847.37 690.35 865.71 699.99 836.04 674.74 817.69 705.95 817.69" fill="#7661D9"/>
 <polygon points="684.25 747.37 693.89 777.05 725.1 777.05 699.85 795.39 709.5 825.07 684.25 806.73 659 825.07 668.65 795.39 643.4 777.05 674.61 777.05" fill="#8F17B9"/>
 <polygon points="652.85 706.65 662.49 736.33 693.7 736.33 668.45 754.67 678.1 784.35 652.85 766.01 627.6 784.35 637.25 754.67 612 736.33 643.21 736.33" fill="#F3DFF2"/>
 <polygon points="621.5 666 631.14 695.68 662.35 695.68 637.1 714.02 646.75 743.7 621.5 725.36 596.25 743.7 605.9 714.02 580.65 695.68 611.86 695.68" fill="#A6BD39"/>
 <polygon points="590.12 625.31 599.76 654.99 630.97 654.99 605.72 673.34 615.37 703.01 590.12 684.67 564.88 703.01 574.52 673.34 549.27 654.99 580.48 654.99" fill="#123D8B"/>
 <polygon points="558.76 584.64 568.4 614.32 599.61 614.32 574.36 632.67 584 662.34 558.76 644 533.51 662.34 543.16 632.67 517.91 614.32 549.12 614.32" fill="#748BA9"/>
 <polygon points="527.39 543.97 537.03 573.65 568.24 573.65 542.99 591.99 552.64 621.67 527.39 603.32 502.14 621.67 511.79 591.99 486.54 573.65 517.74 573.65" fill="#7F891B"/>
 <polygon points="495.99 503.25 505.63 532.93 536.84 532.93 511.59 551.27 521.23 580.95 495.99 562.61 470.74 580.95 480.38 551.27 455.14 532.93 486.34 532.93" fill="#BF3649"/>
 <polygon points="464.62 462.57 474.26 492.25 505.47 492.25 480.22 510.59 489.86 540.27 464.62 521.93 439.37 540.27 449.02 510.59 423.77 492.25 454.97 492.25" fill="#FB3545"/>
 <polygon points="433.23 421.87 442.87 451.55 474.08 451.55 448.83 469.89 458.48 499.57 433.23 481.23 407.98 499.57 417.63 469.89 392.38 451.55 423.59 451.55" fill="#83A3F7"/>
 <polygon points="401.92 381.28 411.57 410.96 442.77 410.96 417.53 429.3 427.17 458.98 401.92 440.63 376.68 458.98 386.32 429.3 361.08 410.96 392.28 410.96" fill="#89E34B"/>
 <polygon points="392.94 431.78 402.58 461.46 433.79 461.46 408.54 479.8 418.18 509.48 392.94 491.14 367.69 509.48 377.33 479.8 352.09 461.46 383.29 461.46" fill="#41DDD3"/>
 <polygon points="392.94 483.17 402.58 512.85 433.79 512.85 408.54 531.19 418.18 560.87 392.94 542.52 367.69 560.87 377.33 531.19 352.09 512.85 383.29 512.85" fill="#4D7139"/>
 <polygon points="392.94 534.42 402.58 564.1 433.79 564.1 408.54 582.45 418.18 612.12 392.94 593.78 367.69 612.12 377.33 582.45 352.09 564.1 383.29 564.1" fill="#C53576"/>
 <polygon points="392.94 585.74 402.58 615.42 433.79 615.42 408.54 633.76 418.18 663.44 392.94 645.1 367.69 663.44 377.33 633.76 352.09 615.42 383.29 615.42" fill="#C0C9E7"/>
 <polygon points="392.94 637.04 402.58 666.72 433.79 666.72 408.54 685.06 418.18 714.74 392.94 696.39 367.69 714.74 377.33 685.06 352.09 666.72 383.29 666.72" fill="#B5CFA1"/>
 <polygon points="392.94 688.46 402.58 718.14 433.79 718.14 408.54 736.48 418.18 766.16 392.94 747.82 367.69 766.16 377.33 736.48 352.09 718.14 383.29 718.14" fill="#EF2093"/>
 <polygon points="392.94 739.77 402.58 769.45 433.79 769.45 408.54 787.8 418.18 817.47 392.94 799.13 367.69 817.47 377.33 787.8 352.09 769.45 383.29 769.45" fill="#C73D37"/>
 <polygon points="392.94 791.15 402.58 820.83 433.79 820.83 408.54 839.18 418.18 868.85 392.94 850.51 367.69 868.85 377.33 839.18 352.09 820.83 383.29 820.83" fill="#8D4CF9"/>
 <polygon points="392.94 842.45 402.58 872.13 433.79 872.13 408.54 890.47 418.18 920.15 392.94 901.8 367.69 920.15 377.33 890.47 352.09 872.13 383.29 872.13" fill="#9FA8F5"/>
 <polygon points="392.94 893.78 402.58 923.46 433.79 923.46 408.54 941.8 418.18 971.48 392.94 953.13 367.69 971.48 377.33 941.8 352.09 923.46 383.29 923.46" fill="#000533"/>
 <polygon points="392.94 945.13 402.58 974.81 433.79 974.81 408.54 993.15 418.18 1022.8 392.94 1004.5 367.69 1022.8 377.33 993.15 352.09 974.81 383.29 974.81" fill="#9F5040"/>
 <polygon points="392.94 996.52 402.58 1026.2 433.79 1026.2 408.54 1044.5 418.18 1074.2 392.94 1055.9 367.69 1074.2 377.33 1044.5 352.09 1026.2 383.29 1026.2" fill="#DF2F63"/>
 <polygon points="392.94 1047.8 402.58 1077.5 433.79 1077.5 408.54 1095.9 418.18 1125.5 392.94 1107.2 367.69 1125.5 377.33 1095.9 352.09 1077.5 383.29 1077.5" fill="#455FBA"/>
 <polygon points="392.94 1099.2 402.58 1128.9 433.79 1128.9 408.54 1147.2 418.18 1176.9 392.94 1158.6 367.69 1176.9 377.33 1147.2 352.09 1128.9 383.29 1128.9" fill="#3525CF"/>
 <polygon points="392.94 1150.6 402.58 1180.3 433.79 1180.3 408.54 1198.6 418.18 1228.3 392.94 1210 367.69 1228.3 377.33 1198.6 352.09 1180.3 383.29 1180.3" fill="#B833F4"/>
 <polygon points="392.94 1202 402.58 1231.7 433.79 1231.7 408.54 1250 418.18 1279.7 392.94 1261.3 367.69 1279.7 377.33 1250 352.09 1231.7 383.29 1231.7" fill="#EC44BD"/>
 <polygon points="392.94 1253.3 402.58 1283 433.79 1283 408.54 1301.3 418.19 1331 392.94 1312.7 367.7 1331 377.34 1301.3 352.09 1283 383.3 1283" fill="#F46E67"/>
 <polygon points="395.85 1304.6 405.49 1334.3 436.7 1334.3 411.45 1352.6 421.1 1382.3 395.85 1363.9 370.6 1382.3 380.25 1352.6 355 1334.3 386.2 1334.3" fill="#73F569"/>
 <polygon points="407.75 1354.6 417.39 1384.3 448.6 1384.3 423.35 1402.6 432.99 1432.3 407.75 1414 382.5 1432.3 392.14 1402.6 366.9 1384.3 398.1 1384.3" fill="#970FCB"/>
 <polygon points="440.92 1393.8 450.56 1423.5 481.77 1423.5 456.52 1441.8 466.16 1471.5 440.92 1453.2 415.67 1471.5 425.32 1441.8 400.07 1423.5 431.28 1423.5" fill="#A4A3EF"/>
 <polygon points="489.45 1410.6 499.1 1440.3 530.3 1440.3 505.06 1458.6 514.7 1488.3 489.45 1469.9 464.21 1488.3 473.85 1458.6 448.6 1440.3 479.81 1440.3" fill="#8657F5"/>
 <polygon points="540.14 1419 549.79 1448.7 580.99 1448.7 555.75 1467 565.39 1496.7 540.14 1478.3 514.9 1496.7 524.54 1467 499.29 1448.7 530.5 1448.7" fill="#B38D6B"/>
 <polygon points="591.28 1423.5 600.92 1453.2 632.13 1453.2 606.88 1471.5 616.53 1501.2 591.28 1482.9 566.03 1501.2 575.68 1471.5 550.43 1453.2 581.64 1453.2" fill="#6B3102"/>
 <polygon points="592.5 1474.8 602.14 1504.5 633.35 1504.5 608.1 1522.9 617.75 1552.5 592.5 1534.2 567.26 1552.5 576.9 1522.9 551.65 1504.5 582.86 1504.5" fill="#556B13"/>
 <polygon points="592.5 1526.2 602.14 1555.9 633.35 1555.9 608.1 1574.2 617.75 1603.9 592.5 1585.6 567.26 1603.9 576.9 1574.2 551.65 1555.9 582.86 1555.9" fill="#F1527F"/>
 <polygon points="541.15 1527.9 550.8 1557.6 582 1557.6 556.76 1575.9 566.4 1605.6 541.15 1587.3 515.91 1605.6 525.55 1575.9 500.3 1557.6 531.51 1557.6" fill="#21DFB5"/>
 <polygon points="489.82 1527.9 499.47 1557.6 530.67 1557.6 505.43 1575.9 515.07 1605.6 489.82 1587.3 464.58 1605.6 474.22 1575.9 448.98 1557.6 480.18 1557.6" fill="#E5353D"/>
 <polygon points="438.56 1527.9 448.21 1557.6 479.41 1557.6 454.17 1575.9 463.81 1605.6 438.56 1587.3 413.32 1605.6 422.96 1575.9 397.71 1557.6 428.92 1557.6" fill="#37F601"/>
 <polygon points="387.25 1527.9 396.9 1557.6 428.1 1557.6 402.86 1575.9 412.5 1605.6 387.25 1587.3 362.01 1605.6 371.65 1575.9 346.4 1557.6 377.61 1557.6" fill="#089D3E"/>
 <polygon points="335.96 1527.9 345.61 1557.6 376.81 1557.6 351.57 1575.9 361.21 1605.6 335.96 1587.3 310.72 1605.6 320.36 1575.9 295.12 1557.6 326.32 1557.6" fill="#9FB73B"/>
 <polygon points="284.62 1527.9 294.26 1557.6 325.47 1557.6 300.22 1575.9 309.87 1605.6 284.62 1587.3 259.37 1605.6 269.02 1575.9 243.77 1557.6 274.98 1557.6" fill="#7BEDE9"/>
 <polygon points="233.21 1527.9 242.86 1557.6 274.06 1557.6 248.82 1575.9 258.46 1605.6 233.21 1587.3 207.97 1605.6 217.61 1575.9 192.36 1557.6 223.57 1557.6" fill="#0BEEB3"/>
 <polygon points="181.85 1527.9 191.49 1557.6 222.7 1557.6 197.45 1575.9 207.09 1605.6 181.85 1587.3 156.6 1605.6 166.24 1575.9 141 1557.6 172.2 1557.6" fill="#48906D"/>
 <polygon points="130.44 1527.9 140.08 1557.6 171.29 1557.6 146.04 1575.9 155.69 1605.6 130.44 1587.3 105.2 1605.6 114.84 1575.9 89.592 1557.6 120.8 1557.6" fill="#75F911"/>
 <polygon points="79.105 1527.9 88.748 1557.6 119.95 1557.6 94.708 1575.9 104.35 1605.6 79.105 1587.3 53.858 1605.6 63.502 1575.9 38.255 1557.6 69.461 1557.6" fill="#C5BF17"/>
 <polygon points="73.034 1477 82.677 1506.6 113.88 1506.6 88.637 1525 98.28 1554.7 73.034 1536.3 47.787 1554.7 57.431 1525 32.184 1506.6 63.39 1506.6" fill="#ED81EC"/>
 <polygon points="73.034 1425.7 82.677 1455.3 113.88 1455.3 88.637 1473.7 98.28 1503.4 73.034 1485 47.787 1503.4 57.431 1473.7 32.184 1455.3 63.39 1455.3" fill="#E3A908"/>
 <polygon points="123.88 1418.5 133.52 1448.1 164.73 1448.1 139.48 1466.5 149.12 1496.2 123.88 1477.8 98.631 1496.2 108.27 1466.5 83.028 1448.1 114.23 1448.1" fill="#0F1435"/>
 <polygon points="174.5 1409.7 184.14 1439.4 215.34 1439.4 190.1 1457.8 199.74 1487.4 174.5 1469.1 149.25 1487.4 158.89 1457.8 133.65 1439.4 164.85 1439.4" fill="#73FB69"/>
 <polygon points="223.02 1393.2 232.66 1422.9 263.87 1422.9 238.62 1441.2 248.26 1470.9 223.02 1452.5 197.77 1470.9 207.41 1441.2 182.17 1422.9 213.37 1422.9" fill="#8957F5"/>
 <polygon points="255.88 1353.7 265.53 1383.3 296.73 1383.3 271.49 1401.7 281.13 1431.4 255.88 1413 230.64 1431.4 240.28 1401.7 215.04 1383.3 246.24 1383.3" fill="#0523CB"/>
 <polygon points="266.97 1303.5 276.61 1333.2 307.82 1333.2 282.57 1351.6 292.21 1381.2 266.97 1362.9 241.72 1381.2 251.36 1351.6 226.12 1333.2 257.32 1333.2" fill="#ECE38E"/>
 <polygon points="269.59 1252.2 279.23 1281.9 310.44 1281.9 285.19 1300.3 294.83 1330 269.59 1311.6 244.34 1330 253.98 1300.3 228.74 1281.9 259.94 1281.9" fill="#9B29A9"/>
 <polygon points="269.59 1200.9 279.23 1230.6 310.44 1230.6 285.19 1248.9 294.84 1278.6 269.59 1260.2 244.34 1278.6 253.99 1248.9 228.74 1230.6 259.95 1230.6" fill="#957E0D"/>
 <polygon points="269.59 1149.6 279.23 1179.2 310.44 1179.2 285.19 1197.6 294.84 1227.3 269.59 1208.9 244.34 1227.3 253.99 1197.6 228.74 1179.2 259.95 1179.2" fill="#06BB96"/>
 <polygon points="269.59 1098.3 279.23 1127.9 310.44 1127.9 285.19 1146.3 294.84 1176 269.59 1157.6 244.34 1176 253.99 1146.3 228.74 1127.9 259.95 1127.9" fill="#5368E6"/>
 <polygon points="269.59 1046.9 279.23 1076.6 310.44 1076.6 285.19 1094.9 294.84 1124.6 269.59 1106.2 244.34 1124.6 253.99 1094.9 228.74 1076.6 259.95 1076.6" fill="#17F78E"/>
 <polygon points="269.59 995.46 279.23 1025.1 310.44 1025.1 285.19 1043.5 294.84 1073.2 269.59 1054.8 244.34 1073.2 253.99 1043.5 228.74 1025.1 259.95 1025.1" fill="#4F66DF"/>
 <polygon points="269.59 944.05 279.23 973.72 310.44 973.72 285.19 992.07 294.84 1021.7 269.59 1003.4 244.34 1021.7 253.99 992.07 228.74 973.72 259.95 973.72" fill="#410F55"/>
 <polygon points="269.59 892.75 279.23 922.43 310.44 922.43 285.19 940.77 294.84 970.45 269.59 952.11 244.34 970.45 253.99 940.77 228.74 922.43 259.95 922.43" fill="#9F41DF"/>
 <polygon points="269.59 841.4 279.23 871.08 310.44 871.08 285.19 889.42 294.84 919.1 269.59 900.76 244.34 919.1 253.99 889.42 228.74 871.08 259.95 871.08" fill="#F35BAB"/>
 <polygon points="269.59 790.05 279.23 819.73 310.44 819.73 285.19 838.07 294.84 867.75 269.59 849.4 244.34 867.75 253.99 838.07 228.74 819.73 259.95 819.73" fill="#C3B7D8"/>
 <polygon points="269.59 738.7 279.23 768.37 310.44 768.37 285.19 786.72 294.84 816.4 269.59 798.05 244.34 816.4 253.99 786.72 228.74 768.37 259.95 768.37" fill="#F537C2"/>
 <polygon points="269.59 687.38 279.23 717.06 310.44 717.06 285.19 735.4 294.84 765.08 269.59 746.74 244.34 765.08 253.99 735.4 228.74 717.06 259.95 717.06" fill="#6FBF23"/>
 <polygon points="269.59 636.02 279.23 665.7 310.44 665.7 285.19 684.04 294.84 713.72 269.59 695.38 244.34 713.72 253.99 684.04 228.74 665.7 259.95 665.7" fill="#5B5393"/>
 <polygon points="269.59 584.65 279.23 614.32 310.44 614.32 285.19 632.67 294.84 662.35 269.59 644 244.34 662.35 253.99 632.67 228.74 614.32 259.95 614.32" fill="#E5814F"/>
 <polygon points="269.59 533.38 279.23 563.06 310.44 563.06 285.19 581.4 294.84 611.08 269.59 592.73 244.34 611.08 253.99 581.4 228.74 563.06 259.95 563.06" fill="#2E9639"/>
 <polygon points="269.59 482.02 279.23 511.7 310.44 511.7 285.19 530.04 294.84 559.72 269.59 541.38 244.34 559.72 253.99 530.04 228.74 511.7 259.95 511.7" fill="#DAF30F"/>
 <polygon points="269.59 430.72 279.23 460.4 310.44 460.4 285.19 478.74 294.84 508.42 269.59 490.08 244.34 508.42 253.99 478.74 228.74 460.4 259.95 460.4" fill="#49C35F"/>
 <polygon points="269.59 379.34 279.23 409.02 310.44 409.02 285.19 427.36 294.84 457.04 269.59 438.7 244.34 457.04 253.99 427.36 228.74 409.02 259.95 409.02" fill="#091BE9"/>
 <polygon points="269.59 328.04 279.23 357.72 310.44 357.72 285.19 376.06 294.84 405.74 269.59 387.4 244.34 405.74 253.99 376.06 228.74 357.72 259.95 357.72" fill="#CEEB35"/>
 <polygon points="268.77 276.69 278.41 306.37 309.62 306.37 284.37 324.71 294.02 354.39 268.77 336.05 243.52 354.39 253.17 324.71 227.92 306.37 259.12 306.37" fill="#D38FB4"/>
 <polygon points="262.11 225.78 271.75 255.46 302.96 255.46 277.71 273.8 287.36 303.48 262.11 285.14 236.86 303.48 246.51 273.8 221.26 255.46 252.47 255.46" fill="#A5C9B6"/>
 <polygon points="240.93 178.95 250.57 208.63 281.78 208.63 256.53 226.97 266.17 256.65 240.93 238.31 215.68 256.65 225.32 226.97 200.08 208.63 231.28 208.63" fill="#D7D355"/>
 <polygon points="195.81 154.47 205.45 184.15 236.66 184.15 211.41 202.49 221.06 232.17 195.81 213.83 170.56 232.17 180.21 202.49 154.96 184.15 186.17 184.15" fill="#BDC975"/>
 <polygon points="145.6 143.26 155.25 172.94 186.45 172.94 161.21 191.28 170.85 220.96 145.6 202.62 120.36 220.96 130 191.28 104.76 172.94 135.96 172.94" fill="#E75D24"/>
 <polygon points="94.651 136.83 104.29 166.51 135.5 166.51 110.25 184.86 119.9 214.53 94.651 196.19 69.405 214.53 79.048 184.86 53.802 166.51 85.008 166.51" fill="#F9B8AD"/>
 <polygon points="73.034 90.277 82.677 119.96 113.88 119.96 88.637 138.3 98.28 167.98 73.034 149.63 47.787 167.98 57.431 138.3 32.184 119.96 63.39 119.96" fill="#CFB601"/>
 <polygon points="73.034 38.981 82.677 68.66 113.88 68.66 88.637 87.002 98.28 116.68 73.034 98.339 47.787 116.68 57.431 87.002 32.184 68.66 63.39 68.66" fill="#79B7F3"/>
 <polygon points="123.64 30.666 133.29 60.345 164.49 60.345 139.25 78.687 148.89 108.37 123.64 90.023 98.397 108.37 108.04 78.687 82.794 60.345 114 60.345" fill="#79799C"/>
 <polygon points="175.09 30.666 184.73 60.345 215.94 60.345 190.69 78.687 200.34 108.37 175.09 90.023 149.84 108.37 159.49 78.687 134.24 60.345 165.45 60.345" fill="#7D078E"/>
 <polygon points="226.45 30.666 236.09 60.345 267.3 60.345 242.05 78.687 251.69 108.37 226.45 90.023 201.2 108.37 210.84 78.687 185.6 60.345 216.8 60.345" fill="#70439D"/>
 <polygon points="277.8 30.666 287.44 60.345 318.65 60.345 293.4 78.687 303.04 108.37 277.8 90.023 252.55 108.37 262.2 78.687 236.95 60.345 268.16 60.345" fill="#D523BD"/>
 <polygon points="329.18 30.666 338.83 60.345 370.03 60.345 344.78 78.687 354.43 108.37 329.18 90.023 303.94 108.37 313.58 78.687 288.33 60.345 319.54 60.345" fill="#D7B34D"/>
 <polygon points="380.54 30.666 390.18 60.345 421.39 60.345 396.14 78.687 405.79 108.37 380.54 90.023 355.3 108.37 364.94 78.687 339.69 60.345 370.9 60.345" fill="#E5F347"/>
 <polygon points="431.89 30.666 441.53 60.345 472.74 60.345 447.49 78.687 457.14 108.37 431.89 90.023 406.64 108.37 416.29 78.687 391.04 60.345 422.25 60.345" fill="#1305A0"/>
 <polygon points="483.25 30.666 492.89 60.345 524.1 60.345 498.85 78.687 508.49 108.37 483.25 90.023 458 108.37 467.64 78.687 442.4 60.345 473.6 60.345" fill="#C2A31E"/>
 <polygon points="534.58 30.666 544.22 60.345 575.42 60.345 550.18 78.687 559.82 108.37 534.58 90.023 509.33 108.37 518.97 78.687 493.73 60.345 524.93 60.345" fill="#F88049"/>
 <polygon points="581.51 51.432 591.16 81.11 622.36 81.11 597.12 99.453 606.76 129.13 581.51 110.79 556.27 129.13 565.91 99.453 540.66 81.11 571.87 81.11" fill="#0CFE04"/>
 <polygon points="612.99 92.055 622.63 121.73 653.84 121.73 628.59 140.08 638.24 169.76 612.99 151.41 587.74 169.76 597.39 140.08 572.14 121.73 603.35 121.73" fill="#E1E552"/>
 <polygon points="644.39 132.58 654.03 162.26 685.24 162.26 659.99 180.6 669.63 210.28 644.39 191.94 619.14 210.28 628.78 180.6 603.54 162.26 634.74 162.26" fill="#37FECF"/>
 <polygon points="675.86 173.2 685.5 202.88 716.71 202.88 691.46 221.22 701.1 250.9 675.86 232.56 650.61 250.9 660.26 221.22 635.01 202.88 666.22 202.88" fill="#ABFD79"/>
 <polygon points="707.3 213.77 716.94 243.45 748.14 243.45 722.9 261.79 732.54 291.47 707.3 273.13 682.05 291.47 691.69 261.79 666.45 243.45 697.65 243.45" fill="#CB4563"/>
 <polygon points="738.72 254.33 748.36 284.01 779.57 284.01 754.32 302.35 763.96 332.03 738.72 313.69 713.47 332.03 723.12 302.35 697.87 284.01 729.08 284.01" fill="#BFA3C7"/>
 <polygon points="770.13 294.86 779.77 324.54 810.98 324.54 785.73 342.89 795.37 372.56 770.13 354.22 744.88 372.56 754.52 342.89 729.28 324.54 760.48 324.54" fill="#6B4657"/>
 <polygon points="801.61 335.5 811.25 365.18 842.46 365.18 817.21 383.52 826.86 413.2 801.61 394.86 776.36 413.2 786 383.52 760.76 365.18 791.96 365.18" fill="#BFCD68"/>
 <polygon points="833.08 376.12 842.72 405.8 873.93 405.8 848.68 424.14 858.33 453.82 833.08 435.48 807.84 453.82 817.48 424.14 792.23 405.8 823.44 405.8" fill="#814C23"/>
 <polygon points="864.5 416.67 874.15 446.35 905.35 446.35 880.11 464.7 889.75 494.37 864.5 476.03 839.26 494.37 848.9 464.7 823.66 446.35 854.86 446.35" fill="#078A91"/>
 <polygon points="895.93 457.24 905.58 486.92 936.78 486.92 911.54 505.26 921.18 534.94 895.93 516.6 870.69 534.94 880.33 505.26 855.08 486.92 886.29 486.92" fill="#BFF951"/>
 <polygon points="927.41 497.87 937.06 527.55 968.26 527.55 943.02 545.89 952.66 575.57 927.41 557.22 902.17 575.57 911.81 545.89 886.56 527.55 917.77 527.55" fill="#5D4DDB"/>
 <polygon points="958.87 538.47 968.52 568.15 999.72 568.15 974.48 586.49 984.12 616.17 958.87 597.83 933.63 616.17 943.27 586.49 918.02 568.15 949.23 568.15" fill="#99A81D"/>
 <polygon points="990.29 579.02 999.93 608.7 1031.1 608.7 1005.9 627.04 1015.5 656.72 990.29 638.38 965.04 656.72 974.69 627.04 949.44 608.7 980.64 608.7" fill="#7F6793"/>
 <polygon points="1021.7 619.58 1031.4 649.26 1062.6 649.26 1037.3 667.6 1047 697.28 1021.7 678.94 996.47 697.28 1006.1 667.6 980.87 649.26 1012.1 649.26" fill="#E19FDD"/>
 <polygon points="1053.1 660.11 1062.8 689.78 1094 689.78 1068.7 708.13 1078.4 737.81 1053.1 719.46 1027.9 737.81 1037.5 708.13 1012.3 689.78 1043.5 689.78" fill="#3A155C"/>
 <polygon points="1084.6 700.72 1094.2 730.39 1125.4 730.39 1100.2 748.74 1109.8 778.41 1084.6 760.07 1059.3 778.41 1069 748.74 1043.7 730.39 1074.9 730.39" fill="#992831"/>
 <polygon points="1116 741.29 1125.7 770.96 1156.9 770.96 1131.6 789.31 1141.3 818.99 1116 800.64 1090.8 818.99 1100.4 789.31 1075.2 770.96 1106.4 770.96" fill="#49B180"/>
 <polygon points="1147.5 781.94 1157.2 811.62 1188.4 811.62 1163.1 829.96 1172.8 859.64 1147.5 841.3 1122.3 859.64 1131.9 829.96 1106.7 811.62 1137.9 811.62" fill="#576F63"/>
 <polygon points="1179 822.56 1188.6 852.24 1219.8 852.24 1194.6 870.58 1204.2 900.26 1179 881.92 1153.7 900.26 1163.4 870.58 1138.1 852.24 1169.3 852.24" fill="#C52F51"/>
 <polygon points="1210.4 863.08 1220 892.76 1251.2 892.76 1226 911.1 1235.6 940.78 1210.4 922.44 1185.1 940.78 1194.8 911.1 1169.5 892.76 1200.7 892.76" fill="#2F7938"/>
 <polygon points="1241.9 903.74 1251.5 933.42 1282.7 933.42 1257.5 951.76 1267.1 981.44 1241.9 963.1 1216.6 981.44 1226.3 951.76 1201 933.42 1232.2 933.42" fill="#BD30A5"/>
 <polygon points="1273.3 944.28 1282.9 973.96 1314.1 973.96 1288.9 992.3 1298.5 1022 1273.3 1003.6 1248 1022 1257.7 992.3 1232.4 973.96 1263.6 973.96" fill="#51C51F"/>
 <polygon points="1304.7 984.82 1314.3 1014.5 1345.6 1014.5 1320.3 1032.8 1329.9 1062.5 1304.7 1044.2 1279.5 1062.5 1289.1 1032.8 1263.9 1014.5 1295.1 1014.5" fill="#6B8F25"/>
 <polygon points="1336.2 1025.4 1345.8 1055.1 1377 1055.1 1351.8 1073.5 1361.4 1103.1 1336.2 1084.8 1310.9 1103.1 1320.6 1073.5 1295.3 1055.1 1326.5 1055.1" fill="#96E91F"/>
</svg>
